<svg xmlns="http://www.w3.org/2000/svg" width="256" height="256" viewBox="0 0 100 100"><rect width="100" height="100" rx="20" fill="#f7a758"></rect><path d="M15.71 81.91L15.71 81.91Q12.95 81.91 11.26 80.21Q9.56 78.51 9.56 75.76L9.56 75.76L9.56 17.46Q10.41 17.25 11.84 16.98Q13.27 16.72 14.86 16.72L14.86 16.72Q17.94 16.72 19.47 17.88Q21.01 19.05 21.01 22.02L21.01 22.02L21.01 72.37L49.74 72.37Q50.27 73.11 50.69 74.27Q51.11 75.44 51.11 76.92L51.11 76.92Q51.11 79.36 49.95 80.63Q48.78 81.91 46.87 81.91L46.87 81.91L15.71 81.91ZM72.74 67.28L72.74 67.28Q72.74 71.09 74.96 72.68Q77.19 74.27 81.22 74.27L81.22 74.27Q83.02 74.27 85.03 73.74Q87.05 73.21 88.53 72.47L88.53 72.47Q89.27 73.32 89.86 74.38Q90.44 75.44 90.44 76.92L90.44 76.92Q90.44 79.68 87.63 81.48Q84.82 83.28 79.10 83.28L79.10 83.28Q71.15 83.28 66.43 79.73Q61.71 76.18 61.71 68.02L61.71 68.02L61.71 18.52Q62.46 18.31 63.83 17.99Q65.21 17.67 66.80 17.67L66.80 17.67Q69.88 17.67 71.31 18.84Q72.74 20.00 72.74 22.76L72.74 22.76L72.74 33.25L89.17 33.25Q89.59 33.89 89.96 35.05Q90.33 36.22 90.33 37.49L90.33 37.49Q90.33 42.05 86.41 42.05L86.41 42.05L72.74 42.05L72.74 67.28Z" fill="#fff"></path></svg>